# xmcd CD database file
#
# Track frame offsets:
#	150
#	11733
#	23007
#	33626
#	43140
#	53844
#	68849
#	78608
#	90704
#	98886
#	110940
#	119263
#	128271
#	139360
#	147677
#	160943
#	172299
#	182427
#	194010
#	203630
#	214364
#	226170
#	236642
#	246892
#	261763
#	271298
#	285438
#
# Disc length: 3916 seconds
#
# Revision: 0
# Processed by: cddbd v1.5.2PL0 Copyright (c) Steve Scherf et al.
# Submitted via: CDex 1.76
#
DISCID=980f4a1b
DTITLE=Ivan Mladek - Jozin z bazin a dalsich 80 pisni
DYEAR=1900
DGENRE=Country
TTITLE0=Jozin z bazin
TTITLE1=Prachovske skaly
TTITLE2=Medvedi nevedi
TTITLE3=Linda
TTITLE4=Jez
TTITLE5=Dasa Novakova
TTITLE6=Neopartny krecek
TTITLE7=Praha - Prcice
TTITLE8=Zaba - puk
TTITLE9=Rychlik jede do Prahy
TTITLE10=Mravenci v kredenci
TTITLE11=Cerna hodinka
TTITLE12=Devce ze samoobsluhy
TTITLE13=Brno je zlata lod
TTITLE14=Zmalovana
TTITLE15=Kdyz je v Praze hic
TTITLE16=Zkratky
TTITLE17=Ve Spindlerove mlyne
TTITLE18=U sila
TTITLE19=Divka s dolicky
TTITLE20=Pravdomluvne vino
TTITLE21=Koukejte vycouvat
TTITLE22=Dasa jedla cukrovi
TTITLE23=Nejkrasnejsi obdobi je podzim
TTITLE24=Krava v mlekarne
TTITLE25=Lada jede lodi
TTITLE26=Hlasna Treban
EXTD=
EXTT0=
EXTT1=
EXTT2=
EXTT3=
EXTT4=
EXTT5=
EXTT6=
EXTT7=
EXTT8=
EXTT9=
EXTT10=
EXTT11=
EXTT12=
EXTT13=
EXTT14=
EXTT15=
EXTT16=
EXTT17=
EXTT18=
EXTT19=
EXTT20=
EXTT21=
EXTT22=
EXTT23=
EXTT24=
EXTT25=
EXTT26=
PLAYORDER=
